#!OML:ASF H:\Punching\Project 1\Capture day 1\Session 1\female.ASF
:FULLY-SPECIFIED
:DEGREES
880
root -1.70909 15.8425 3.02872 10.0659 131.519 0.914758
lowerback -7.24333 1.0671 5.24461
upperback -5.50126 1.45987 0.598774
thorax -1.54132 0.728226 -2.23957
lowerneck -9.77315 4.0245 14.4209
upperneck 39.8712 8.80068 -6.09023
head 17.1173 6.31532 -3.41948
rclavicle 3.43401e-014 -1.35174e-014
rhumerus -27.4928 9.3493 -87.0922
rradius 32.8748
rwrist 4.73168
rhand -12.5308 -5.79671
rfingers 7.12502
rthumb 13.5454 -35.3361
lclavicle 3.43401e-014 -1.35174e-014
lhumerus -45.6675 13.0396 71.5589
lradius 31.2413
lwrist -20.6662
lhand -6.47872 12.8314
lfingers 7.12502
lthumb 19.3721 41.8864
rfemur -10.1201 9.65738 26.6444
rtibia 18.8862
rfoot -15.6803 -6.23388
rtoes 11.455
lfemur -32.0128 -16.6334 -2.61132
ltibia 29.0018
lfoot -9.7511 -0.490345
ltoes -10.0726
881
root -1.6775 15.8436 2.94708 10.0828 130.37 0.934115
lowerback -7.20712 1.10854 5.14141
upperback -5.49269 1.51746 0.611388
thorax -1.54947 0.757955 -2.16588
lowerneck -9.70778 4.11879 14.4627
upperneck 39.8304 8.90681 -6.10037
head 17.1007 6.3501 -3.4164
rclavicle 1.19271e-014 -3.45885e-014
rhumerus -27.4544 9.89519 -87.4635
rradius 32.9563
rwrist 4.69711
rhand -12.5235 -5.74061
rfingers 7.12502
rthumb 13.5525 -35.2795
lclavicle 1.19271e-014 -3.45885e-014
lhumerus -45.8882 13.5359 71.0756
lradius 30.7532
lwrist -21.2368
lhand -6.31867 12.7624
lfingers 7.12502
lthumb 19.526 41.8019
rfemur -9.76667 10.1377 26.3911
rtibia 18.6972
rfoot -15.7914 -5.66711
rtoes 11.1672
lfemur -31.9491 -16.9247 -1.96188
ltibia 27.6694
lfoot -9.12733 -3.32548
ltoes -10.2086
882
root -1.64642 15.8441 2.86525 10.1218 129.215 0.979371
lowerback -7.16096 1.1503 5.04829
upperback -5.48803 1.57598 0.628308
thorax -1.56738 0.787795 -2.09367
lowerneck -9.65375 4.20401 14.4967
upperneck 39.7859 8.99058 -6.10012
head 17.0801 6.37461 -3.41121
rclavicle 4.90501e-014 -1.11319e-014
rhumerus -27.4579 10.3971 -87.817
rradius 33.0479
rwrist 4.65185
rhand -12.5073 -5.66706
rfingers 7.12502
rthumb 13.5681 -35.205
lclavicle 4.90501e-014 -1.11319e-014
lhumerus -46.1208 14.0236 70.6017
lradius 30.2821
lwrist -21.8199
lhand -6.15411 12.7033
lfingers 7.12502
lthumb 19.6842 41.7267
rfemur -9.43487 10.6303 26.1446
rtibia 18.5276
rfoot -15.8995 -5.10756
rtoes 10.8776
lfemur -31.8525 -17.1572 -1.35061
ltibia 26.3975
lfoot -8.40852 -6.21132
ltoes -10.2162
883
root -1.61601 15.8445 2.78242 10.1737 128.054 1.03762
lowerback -7.11175 1.19105 4.9653
upperback -5.48245 1.6326 0.64215
thorax -1.58615 0.816301 -2.03056
lowerneck -9.62255 4.28292 14.5359
upperneck 39.7388 9.0513 -6.09335
head 17.0603 6.38936 -3.40785
rclavicle 3.30976e-014 8.74653e-015
rhumerus -27.4949 10.8538 -88.1593
rradius 33.1501
rwrist 4.59287
rhand -12.481 -5.58254
rfingers 7.12502
rthumb 13.5935 -35.1187
lclavicle 3.30976e-014 8.74653e-015
lhumerus -46.3612 14.4922 70.1405
lradius 29.8378
lwrist -22.4077
lhand -6.00902 12.6532
lfingers 7.12502
lthumb 19.8237 41.6622
rfemur -9.12399 11.124 25.8917
rtibia 18.3776
rfoot -16.012 -4.5464
rtoes 10.5898
lfemur -31.7261 -17.3954 -0.770134
ltibia 25.1978
lfoot -7.56554 -9.00782
ltoes -10.1089
884
root -1.58658 15.8444 2.69848 10.2502 126.892 1.1154
lowerback -7.06202 1.24034 4.90674
upperback -5.47631 1.69909 0.644489
thorax -1.6034 0.848885 -1.99246
lowerneck -9.63474 4.34866 14.5807
upperneck 39.696 9.07125 -6.07119
head 17.0468 6.38786 -3.40509
rclavicle 1.59028e-015 -1.98785e-014
rhumerus -27.5626 11.2378 -88.4834
rradius 33.2639
rwrist 4.51632
rhand -12.4484 -5.50025
rfingers 7.12502
rthumb 13.6249 -35.0344
lclavicle 1.59028e-015 -1.98785e-014
lhumerus -46.5761 14.9018 69.7106
lradius 29.4164
lwrist -22.9698
lhand -5.88918 12.62
lfingers 7.12502
lthumb 19.9389 41.6171
rfemur -8.84604 11.6185 25.6341
rtibia 18.2526
rfoot -16.1287 -3.98664
rtoes 10.3166
lfemur -31.5789 -17.6596 -0.212612
ltibia 24.0781
lfoot -6.59474 -11.5948
ltoes -9.92246
885
root -1.55795 15.8444 2.61283 10.3233 125.726 1.17957
lowerback -7.018 1.29138 4.85698
upperback -5.46932 1.76678 0.633367
thorax -1.61611 0.881655 -1.97303
lowerneck -9.66912 4.40446 14.6167
upperneck 39.6491 9.06115 -6.03001
head 17.0299 6.37315 -3.39733
rclavicle 6.60959e-014 8.74653e-015
rhumerus -27.658 11.5654 -88.7936
rradius 33.3833
rwrist 4.42148
rhand -12.4127 -5.42073
rfingers 7.12502
rthumb 13.6593 -34.9525
lclavicle 6.60959e-014 8.74653e-015
lhumerus -46.7775 15.2619 69.3125
lradius 29.0243
lwrist -23.4921
lhand -5.74587 12.5909
lfingers 7.12502
lthumb 20.0766 41.5736
rfemur -8.59562 12.106 25.3468
rtibia 18.1508
rfoot -16.2566 -3.41736
rtoes 10.0716
lfemur -31.4104 -17.9975 0.314274
ltibia 23.0479
lfoot -5.51564 -13.8614
ltoes -9.56744
886
root -1.53021 15.8447 2.52533 10.388 124.552 1.22614
lowerback -6.97644 1.34613 4.81464
upperback -5.46082 1.83843 0.60792
thorax -1.62511 0.915951 -1.97227
lowerneck -9.73175 4.45025 14.645
upperneck 39.6012 9.0207 -5.97069
head 17.0131 6.3452 -3.38501
rclavicle -2.35063e-014 -9.14409e-015
rhumerus -27.7813 11.834 -89.0873
rradius 33.5077
rwrist 4.30514
rhand -12.3802 -5.35547
rfingers 7.12502
rthumb 13.6906 -34.8852
lclavicle -2.35063e-014 -9.14409e-015
lhumerus -46.9571 15.562 68.9561
lradius 28.6657
lwrist -23.9521
lhand -5.59025 12.5662
lfingers 7.12502
lthumb 20.2262 41.5331
rfemur -8.37395 12.5894 25.0275
rtibia 18.075
rfoot -16.3973 -2.84304
rtoes 9.86076
lfemur -31.2153 -18.3892 0.798563
ltibia 22.1147
lfoot -4.36482 -15.7627
ltoes -9.0564
887
root -1.50329 15.8453 2.43592 10.4579 123.365 1.27441
lowerback -6.93497 1.40183 4.77777
upperback -5.45111 1.91101 0.584124
thorax -1.63272 0.950645 -1.97283
lowerneck -9.81983 4.48583 14.661
upperneck 39.5555 8.95862 -5.90756
head 16.9993 6.30583 -3.37239
rclavicle 2.22142e-014 1.98785e-014
rhumerus -27.9366 12.074 -89.3544
rradius 33.6414
rwrist 4.15987
rhand -12.3513 -5.31153
rfingers 7.12502
rthumb 13.7185 -34.8393
lclavicle 2.22142e-014 1.98785e-014
lhumerus -47.1299 15.8292 68.6443
lradius 28.348
lwrist -24.3603
lhand -5.42789 12.5418
lfingers 7.12502
lthumb 20.3822 41.4922
rfemur -8.17637 13.0749 24.6883
rtibia 18.018
rfoot -16.5419 -2.26166
rtoes 9.65599
lfemur -30.9884 -18.8032 1.23887
ltibia 21.2921
lfoot -3.18972 -17.281
ltoes -8.31985
888
root -1.47704 15.8465 2.34465 10.5017 122.162 1.28505
lowerback -6.892 1.44654 4.70293
upperback -5.44644 1.97169 0.575494
thorax -1.64867 0.980671 -1.93744
lowerneck -9.91528 4.51303 14.6535
upperneck 39.5134 8.89162 -5.85363
head 16.9873 6.25994 -3.36082
rclavicle 6.37105e-014 4.37326e-015
rhumerus -28.137 12.3354 -89.5864
rradius 33.788
rwrist 3.97317
rhand -12.3431 -5.30064
rfingers 7.12502
rthumb 13.7263 -34.8279
lclavicle 6.37105e-014 4.37326e-015
lhumerus -47.3227 16.0921 68.3811
lradius 28.0684
lwrist -24.7166
lhand -5.27051 12.5108
lfingers 7.12502
lthumb 20.5335 41.4449
rfemur -8.0053 13.5694 24.3052
rtibia 17.9824
rfoot -16.6921 -1.6834
rtoes 9.48043
lfemur -30.7298 -19.2345 1.60629
ltibia 20.5907
lfoot -2.05025 -18.408
ltoes -7.38398
889
root -1.45171 15.8478 2.25144 10.5615 120.944 1.31032
lowerback -6.84482 1.48843 4.62617
upperback -5.445 2.0296 0.583302
thorax -1.67129 1.00968 -1.88443
lowerneck -10.0204 4.52977 14.6287
upperneck 39.4718 8.81286 -5.80684
head 16.9753 6.20553 -3.35162
rclavicle 2.52953e-014 1.66979e-014
rhumerus -28.3835 12.6085 -89.779
rradius 33.9528
rwrist 3.7479
rhand -12.3643 -5.34305
rfingers 7.12502
rthumb 13.7059 -34.8717
lclavicle 2.52953e-014 1.66979e-014
lhumerus -47.5335 16.3303 68.1753
lradius 27.8315
lwrist -25.0175
lhand -5.14702 12.4658
lfingers 7.12502
lthumb 20.6522 41.3871
rfemur -7.8629 14.0724 23.91
rtibia 17.9696
rfoot -16.8427 -1.11031
rtoes 9.26812
lfemur -30.4358 -19.6247 1.90649
ltibia 20.0176
lfoot -0.973101 -19.2081
ltoes -6.32709
890
root -1.42735 15.8492 2.15671 10.6312 119.715 1.33047
lowerback -6.80778 1.52945 4.55205
upperback -5.44484 2.08585 0.588662
thorax -1.6898 1.03792 -1.83533
lowerneck -10.1394 4.53933 14.6008
upperneck 39.4271 8.71742 -5.75673
head 16.962 6.14324 -3.3433
rclavicle -2.71838e-014 -1.11319e-014
rhumerus -28.6479 12.8568 -89.9441
rradius 34.113
rwrist 3.51203
rhand -12.4023 -5.4298
rfingers 7.12502
rthumb 13.6693 -34.9609
lclavicle -2.71838e-014 -1.11319e-014
lhumerus -47.7396 16.521 68.0213
lradius 27.6358
lwrist -25.2641
lhand -5.04059 12.4256
lfingers 7.12502
lthumb 20.7544 41.3358
rfemur -7.76881 14.584 23.4895
rtibia 17.9907
rfoot -16.9958 -0.550882
rtoes 9.02662
lfemur -30.1191 -19.9583 2.12456
ltibia 19.5681
lfoot 0.037232 -19.7295
ltoes -5.19457
891
root -1.40412 15.8506 2.05983 10.7097 118.486 1.34416
lowerback -6.78176 1.56382 4.49361
upperback -5.44882 2.13228 0.587554
thorax -1.70668 1.06085 -1.80201
lowerneck -10.2577 4.54651 14.5741
upperneck 39.3744 8.61336 -5.70068
head 16.9428 6.07756 -3.33419
rclavicle -5.85918e-014 -2.5842e-014
rhumerus -28.9254 13.0834 -90.0903
rradius 34.258
rwrist 3.27847
rhand -12.4518 -5.53418
rfingers 7.12502
rthumb 13.6216 -35.0685
lclavicle -5.85918e-014 -2.5842e-014
lhumerus -47.9602 16.6755 67.9026
lradius 27.495
lwrist -25.4598
lhand -4.9427 12.401
lfingers 7.12502
lthumb 20.8485 41.3008
rfemur -7.7261 15.0765 23.0405
rtibia 18.0503
rfoot -17.1599 0.0117056
rtoes 8.77069
lfemur -29.7887 -20.2529 2.26623
ltibia 19.2393
lfoot 1.01055 -20.0316
ltoes -3.97209
892
root -1.38198 15.8518 1.96085 10.8032 117.261 1.35656
lowerback -6.7707 1.60462 4.47536
upperback -5.45175 2.18405 0.558036
thorax -1.71181 1.08501 -1.81965
lowerneck -10.3964 4.54809 14.5577
upperneck 39.3129 8.47872 -5.61619
head 16.9186 6.00247 -3.31918
rclavicle 3.97569e-014 3.10104e-014
rhumerus -29.1932 13.2315 -90.2227
rradius 34.3764
rwrist 3.06444
rhand -12.4964 -5.65788
rfingers 7.12502
rthumb 13.5786 -35.1951
lclavicle 3.97569e-014 3.10104e-014
lhumerus -48.1442 16.741 67.8292
lradius 27.397
lwrist -25.5887
lhand -4.82933 12.4019
lfingers 7.12502
lthumb 20.9574 41.2897
rfemur -7.74126 15.5369 22.5649
rtibia 18.1546
rfoot -17.3357 0.586624
rtoes 8.50512
lfemur -29.4467 -20.4837 2.31827
ltibia 19.0216
lfoot 1.92935 -20.2271
ltoes -2.83863
893
root -1.36086 15.8526 1.85974 10.9078 116.03 1.37446
lowerback -6.7628 1.6422 4.48621
upperback -5.4549 2.22986 0.518475
thorax -1.7146 1.10523 -1.86413
lowerneck -10.536 4.5503 14.532
upperneck 39.2421 8.33638 -5.50977
head 16.8868 5.92467 -3.29407
rclavicle 6.08033e-014 3.97569e-016
rhumerus -29.4456 13.3368 -90.333
rradius 34.4532
rwrist 2.88854
rhand -12.511 -5.74733
rfingers 7.12502
rthumb 13.5646 -35.2855
lclavicle 6.08033e-014 3.97569e-016
lhumerus -48.3156 16.7636 67.7884
lradius 27.3374
lwrist -25.6707
lhand -4.70033 12.4173
lfingers 7.12502
lthumb 21.0813 41.2913
rfemur -7.80277 15.9654 22.0657
rtibia 18.2992
rfoot -17.5197 1.18367
rtoes 8.2318
lfemur -29.0862 -20.6607 2.28397
ltibia 18.918
lfoot 2.77183 -20.3958
ltoes -1.66729
894
root -1.34059 15.8523 1.75676 11.0611 114.783 1.4484
lowerback -6.74744 1.68004 4.53871
upperback -5.4566 2.2743 0.477584
thorax -1.71878 1.12348 -1.93352
lowerneck -10.6771 4.55246 14.492
upperneck 39.1629 8.18627 -5.37906
head 16.8478 5.84382 -3.25693
rclavicle 2.8128e-014 1.31198e-014
rhumerus -29.6833 13.404 -90.4182
rradius 34.4871
rwrist 2.75551
rhand -12.4897 -5.78585
rfingers 7.12502
rthumb 13.585 -35.3226
lclavicle 2.8128e-014 1.31198e-014
lhumerus -48.4801 16.7501 67.7818
lradius 27.3158
lwrist -25.7079
lhand -4.56668 12.4399
lfingers 7.12502
lthumb 21.2097 41.2995
rfemur -7.90534 16.3686 21.5666
rtibia 18.4874
rfoot -17.7101 1.80886
rtoes 7.96579
lfemur -28.694 -20.7722 2.18252
ltibia 18.9237
lfoot 3.46271 -20.5888
ltoes -0.405194
